<svg width="185" height="188" viewBox="0 0 185 188" fill="none" xmlns="http://www.w3.org/2000/svg">
<g opacity="0.1">
<path d="M94.2922 27.3961C100.608 25.2819 105.712 27.0571 109.02 33.3412C111.956 30.8456 115.006 28.1059 118.908 29.9168C123.297 31.954 127.896 32.9013 132.608 33.6044C136.362 34.4563 136.335 37.7085 136.778 40.5854C139.931 41.4552 143.667 41.7055 146.594 43.0637C150.495 44.8746 149.169 49.0083 149.029 52.5046C149.63 52.4868 150.117 52.7131 150.962 52.8085C158.714 54.6255 160.871 62.7501 155.746 68.6824C155.162 69.3018 154.465 70.1655 153.637 70.6717C150.588 73.4115 150.622 74.6147 154.297 76.914C159.565 80.2498 162.402 86.9091 161.128 92.8476C160.901 93.336 161.162 94.0508 161.406 94.1639C164.497 97.0827 163.511 100.484 162.883 103.754C162.254 107.024 159.919 109.501 156.834 111.038C156.364 111.413 156.007 111.544 155.292 111.806C156.082 118.406 154.087 120.151 147.465 124.201C142.969 126.863 136.209 126.101 132.631 122.956C131.106 124.326 129.224 125.826 127.829 127.554C125.624 130.389 121.547 130.871 118.116 128.685C117.628 128.459 117.237 127.386 116.636 127.404C110.886 128.298 112.796 123.544 111.865 120.441C106.847 121.674 102.571 119.392 98.0686 117.599C94.5413 116.259 92.2676 116.688 90.437 119.993C87.5862 125.497 85.5803 131.096 82.7295 136.599C79.992 141.859 79.5454 147.291 79.2293 153.08C78.9133 158.87 76.691 161.104 70.6634 160.68C62.3448 160.084 55.517 156.915 49.4653 151.435L49.2215 151.322C47.9851 150.155 45.3989 148.064 45.6255 147.575C46.759 145.133 48.7374 142.787 50.7329 141.041C52.3712 139.427 55.246 138.981 56.3966 137.14C58.3578 134.192 59.5874 130.904 60.3293 127.39C61.5865 120.85 62.2426 114.328 63.2731 108.276C61.2089 107.615 59.7458 106.936 58.1694 106.501C57.0806 106.292 55.9918 106.084 54.9202 106.477C48.9612 108.46 45.0767 107.251 41.6732 101.812C41.4293 101.699 41.0721 101.83 40.8283 101.717C34.9826 103.456 31.8125 101.985 29.2538 96.6418C28.9928 95.927 28.6013 94.8548 28.9413 94.1222C30.9987 90.3281 29.0926 86.7721 28.1447 83.0672C27.4922 81.2803 28.8695 78.9514 29.1752 77.0156C29.3847 75.9256 29.5943 74.8356 29.3332 74.1208C27.9148 70.7911 29.093 65.6985 32.0296 63.2029C34.3823 61.3268 36.4912 59.3375 38.2257 56.8776C41.5813 52.202 46.0154 51.5887 50.9715 52.4049C48.7013 44.5245 50.5149 40.6173 57.7722 37.7526C57.6796 30.2893 64.0405 25.5245 71.3046 27.1151C72.1495 27.2105 73.4478 26.329 74.0317 25.7096C78.9123 19.6641 85.1324 18.3957 91.0363 22.9168C92.3861 23.8401 93.0386 25.627 94.2922 27.3961ZM135.038 114.575C134.42 113.991 134.176 113.878 133.933 113.765C133.184 112.824 132.435 111.883 131.686 110.942C132.888 110.906 134.334 110.983 135.406 110.59C136.835 110.066 138.751 109.769 139.205 108.792C140.242 107.195 140.304 105.147 140.967 103.08C141.08 102.835 140.235 102.74 140.105 102.383C139.243 101.686 138.381 100.989 137.275 100.179C138.216 99.4283 139.157 98.6779 140.228 98.2848C143.199 96.9924 143.488 94.455 143.776 91.9176C144.065 89.3802 142.715 88.4569 140.407 87.6825C137.742 87.0391 137.577 85.4785 139.817 83.8466C140.287 83.4713 140.888 83.4535 141.115 82.9651C141.795 81.4998 143.189 79.7726 143.025 78.212C142.877 77.253 140.682 76.2344 139.332 75.3111C139.089 75.1979 138.374 75.4599 138.244 75.1026C137.512 74.763 136.537 74.3103 136.519 73.7087C136.502 73.1071 137.2 72.2435 137.67 71.8682C138.141 71.493 138.968 70.9867 139.683 70.7247C143.481 68.9261 143.56 67.4787 140.94 64.1847C139.443 62.3024 137.883 62.4691 136.097 63.1242C132.299 64.9229 132.299 64.9229 130.863 60.9916C130.21 59.2047 129.07 57.1914 127.72 56.2681C124.777 54.3083 120.848 55.7496 118.399 58.4715C116.534 60.574 114.408 61.9618 112.169 63.5937C111.698 63.9689 110.853 63.8736 110.365 63.6472C109.991 63.1767 109.843 62.2177 109.826 61.6161C110.585 58.7035 111.588 55.904 112.217 52.634C113.185 48.6314 110.809 45.4506 106.941 44.8429C102.586 44.0088 102.082 43.1808 103.521 38.803C103.844 37.4688 104.149 35.5329 103.514 34.3476C101.965 30.6606 98.211 29.8086 94.9001 31.8336C94.0723 32.3399 92.6435 32.864 91.7986 32.7686C91.3109 32.5423 90.545 30.9995 90.6412 30.1538C91.0088 26.169 88.0997 25.4124 85.304 24.4116C82.0206 23.1844 79.2935 24.59 77.8028 27.1631C77.0094 28.8725 76.7209 31.4099 75.6493 31.803C74.2205 32.3271 72.2525 30.82 70.4322 30.272C67.2792 29.4022 64.9265 31.2783 62.8177 33.2677C61.066 35.126 62.0757 36.7819 63.4427 38.3068C63.817 38.7773 63.8513 39.9805 63.5113 40.7131C63.0408 41.0884 61.9692 41.4814 61.2376 41.1419C58.9296 40.3675 57.518 41.4932 56.2368 42.9762C53.204 46.3176 53.4204 49.683 55.3265 53.239C56.8583 56.3245 55.7076 58.1649 52.2147 58.0278C49.9238 57.8549 47.5025 57.3247 45.2116 57.1519C44.1228 56.9433 42.3368 57.5985 42.1102 58.0869C41.7426 62.0717 38.5278 63.2509 36.0617 65.3712C33.8224 67.0032 32.3317 69.5762 33.7158 71.7027C35.7181 74.4129 34.1931 75.7828 32.9292 77.8675C32.2319 78.7312 31.7786 79.708 31.569 80.798C31.7167 81.757 32.1254 83.4307 32.8569 83.7703C37.133 86.0517 37.133 86.0517 34.9622 90.09C34.7355 90.5785 34.1516 91.1979 34.2822 91.5553C35.0652 93.6996 35.6215 96.3323 37.119 98.2146C38.8603 100.21 40.2376 97.8812 41.7626 96.5113C43.1742 95.3856 45.0907 95.0879 46.6328 94.3196C46.7977 95.8802 46.9625 97.4407 47.2407 98.7571C47.6494 100.431 48.3019 102.218 49.0678 103.761C50.9671 102.861 52.997 102.319 54.6524 101.307C55.8374 100.669 56.5175 99.2042 57.5719 98.2096C58.0424 97.8343 58.7568 97.5723 59.4712 97.3103C59.7322 98.025 60.2371 98.853 60.1409 99.6988C60.1753 100.902 59.9657 101.992 60 103.195C63.0672 101.057 64.314 98.3707 61.9545 95.7915C58.8462 92.2711 55.398 89.4834 52.063 86.4515C50.9571 85.6414 49.6074 84.7181 47.7252 86.219C47.1413 86.8384 44.9466 85.8198 43.8407 85.0097C43.353 84.7833 43.171 82.6211 43.171 82.6211C45.297 81.2334 45.9256 77.9634 49.4186 78.1006C51.4656 78.1602 52.8772 77.0345 51.0054 74.6817C49.7518 72.9126 50.4491 72.0489 52.3827 72.3528C54.0725 72.5435 55.7623 72.7342 57.9398 73.1512C58.4722 70.727 59.0047 68.3028 59.5371 65.8786C59.7809 65.9917 60.1381 65.8607 60.382 65.9739C60.6601 67.2903 60.6945 68.4935 61.086 69.5656C61.3642 70.882 61.8862 72.3115 62.1644 73.6279C63.3321 72.389 64.4999 71.1502 65.5372 69.5539C65.6505 69.3097 65.8772 68.8213 66.1039 68.3329C66.6706 67.1119 67.3679 66.2482 68.1785 65.1404C67.8041 64.6698 66.942 63.9729 65.8361 63.1628C66.7772 62.4123 67.4744 61.5487 68.4155 60.7982C69.2776 61.4951 69.7825 62.3231 70.6445 63.02C75.2881 61.3167 76.2635 61.7694 75.6693 66.2426C78.8222 67.1124 79.5641 63.5982 82.195 63.0384C81.7588 64.6168 81.1921 65.8378 80.7558 67.4163C80.1101 70.0847 79.351 72.9973 79.3063 75.6479C79.3235 76.2495 81.2914 77.7565 81.762 77.3813C84.6196 76.3331 87.2161 74.5701 90.3004 73.0335C89.1773 71.6218 88.6553 70.1923 87.5494 69.3822C85.4509 67.5177 86.6015 65.6773 87.7521 63.8368C87.9788 63.3484 88.9371 63.1995 89.5381 63.1817C89.782 63.2949 90.4002 63.8786 90.4173 64.4802C90.6784 65.195 90.3383 65.9276 90.3555 66.5292C94.1542 64.7306 95.7478 65.767 95.9984 70.3356C101.975 68.954 101.057 74.7614 103.06 77.4716C103.156 76.6258 103.025 76.2684 102.895 75.911C102.6 73.9931 103.019 71.8131 105.423 71.7417C107.583 71.5571 107.521 73.6061 107.686 75.1667C107.999 77.6862 108.912 80.188 105.958 82.0819C105.601 82.213 105.618 82.8146 105.749 83.1719C106.288 85.2031 106.47 87.3653 107.14 89.7538C108.211 89.3607 108.926 89.0987 109.884 88.9498C110.485 88.932 111.217 89.2715 111.704 89.4979C110.475 92.7857 111.955 94.0664 114.977 94.5788C114.977 94.5788 115.221 94.692 115.108 94.9362C116.101 95.9905 116.403 102.364 115.836 103.585C115.496 104.317 114.912 104.937 114.328 105.556C115.417 105.765 116.262 105.86 117.351 106.069C117.594 106.182 118.082 106.408 118.814 106.748C117.873 107.498 117.045 108.004 116.705 108.737C116.251 109.714 116.172 111.161 116.791 111.745C119.655 115.152 119.655 115.152 116.979 118.363C116.753 118.851 116.526 119.339 116.413 119.584C117.536 120.995 118.528 122.05 119.651 123.461C120.009 123.33 120.61 123.312 121.08 122.937C123.32 121.305 125.672 119.429 128.842 120.901C129.574 121.24 131.003 120.716 131.7 119.852C132.267 118.631 133.531 116.547 135.038 114.575ZM115.544 114.431C112.879 113.788 110.571 113.014 108.524 112.954C104.787 112.704 101.634 111.834 98.9171 109.386C95.2078 105.883 95.4964 103.346 100.123 101.041C102.493 99.7662 105.106 98.6048 107.59 97.0861C106.381 92.6664 103.688 95.2752 101.414 95.7039C96.9803 96.3172 92.5634 97.5321 88.2427 97.9012C84.2792 98.1393 82.8951 96.0128 83.7503 92.2544C84.7018 87.6502 87.1164 83.725 90.6369 80.61C92.519 79.1091 94.4012 77.6082 96.2834 76.1073C96.1529 75.7499 96.2662 75.5057 96.1357 75.1483C94.5764 75.315 92.8866 75.1243 91.7017 75.7616C88.9746 77.1672 86.378 78.9302 83.6509 80.3357C80.5667 81.8723 78.0148 80.9847 77.1974 77.6372C76.5277 75.2487 76.9296 72.4671 76.7305 69.7033C74.1786 68.8157 74.0034 71.1089 73.4538 72.9315C72.6157 77.2915 71.9081 82.0089 71.07 86.3689C70.9738 87.2147 70.0327 87.9652 69.5793 88.942C68.6039 88.4893 67.3847 87.9234 66.8798 87.0954C64.486 83.313 62.336 79.6438 60.186 75.9746C58.6267 76.1413 57.0674 76.308 55.5081 76.4747C54.488 78.6726 53.4679 80.8704 52.3344 83.3125C53.3098 83.7652 54.4158 84.5753 55.3912 85.0281C61.0341 88.8344 66.0932 93.2602 66.9002 100.461C67.1165 103.827 66.7317 107.21 66.5909 110.706C65.9862 119.033 64.8939 127.134 61.7545 135.175C60.6383 138.219 58.9037 140.678 55.9328 141.971C54.7479 142.608 53.5629 143.245 52.1341 143.769C52.8657 144.109 53.5973 144.449 54.0678 144.073C56.9254 143.025 59.4773 143.913 62.0463 145.402C64.6153 146.891 67.4282 148.494 70.3373 149.25C73.2464 150.007 75.5715 151.383 76.8595 154.355C77.069 153.265 77.1652 152.419 77.2614 151.573C77.9861 147.458 78.467 143.229 79.4357 139.226C79.8547 137.046 81.1187 134.961 82.0254 133.008C83.4818 129.231 84.9381 125.455 86.6383 121.792C90.2653 113.978 94.5346 111.804 102.468 115.783C104.175 116.575 106.126 117.481 107.929 117.427C109.88 118.332 113.016 118.601 115.544 114.431ZM145.065 73.8163C146.136 73.4232 147.452 73.1433 148.393 72.3929C149.804 71.2672 150.842 69.6709 151.879 68.0747C153.03 66.2342 154.537 64.2627 155.07 61.8385C155.812 58.3243 154.314 56.442 150.935 56.0607C149.245 55.87 147.328 56.1677 144.924 56.2391C144.759 54.6785 144.595 53.1179 144.43 51.5574C143.77 45.3151 140.714 43.5995 135.503 46.5238C133.961 47.2921 133.247 47.5542 132.708 45.523C132.299 43.8493 131.986 41.3297 130.881 40.5196C128.05 38.3156 125.09 35.7543 120.35 38.3034C121.432 34.0566 118.784 34.0147 116.493 33.8419C114.202 33.6691 111.571 34.2288 110.812 37.1415C110.489 38.4757 110.768 39.792 111.176 41.4658C110.575 41.4836 109.373 41.5193 107.927 41.4418C110.853 42.8 114.477 43.2945 115.861 45.421C117.245 47.5475 116.747 51.1749 116.963 54.5403C120.11 50.9547 123.977 51.5624 127.731 52.4143C129.307 52.8492 131.258 53.7547 132.137 55.0532C134.009 57.406 135.393 59.5325 138.886 59.6697C140.088 59.634 141.194 60.4441 142.3 61.2542C145.879 64.3993 146.243 68.7237 145.065 73.8163ZM135.114 121.437C140.183 122.009 143.886 121.056 147.458 119.746C151.387 118.305 151.37 117.703 149.106 114.278C147.853 112.509 148.856 109.709 150.869 108.566C152.768 107.667 154.781 106.523 156.419 104.909C159.939 101.794 159.792 100.835 157.041 97.1836C155.657 95.0571 152.94 92.6089 156.721 90.2087C157.436 89.9467 157.611 87.6535 157.219 86.5813C156.175 83.7222 154.417 81.1252 150.793 80.6306C147.039 79.7787 146.394 82.4471 145.13 84.5318C149.44 88.0164 149.856 94.1455 145.638 98.1242C145.054 98.7436 144.13 100.096 144.504 100.566C145.792 103.539 144.415 105.867 143.151 107.952C140.754 112.479 138.226 116.648 135.114 121.437ZM85.7355 94.363C92.3985 95.9716 97.8699 93.762 103.585 91.6656C100.137 88.8779 101.967 85.5722 102.483 82.5464C101.377 81.7363 100.515 81.0393 99.4088 80.2292C98.059 79.3059 96.7264 78.9842 94.9576 80.2409C90.7227 83.618 87.367 88.2936 85.7355 94.363ZM50.4511 148.034C56.9114 155.188 64.5842 158.452 73.7133 157.941C73.0093 154.349 70.7975 152.729 67.2873 151.99C65.1098 151.573 62.9152 150.554 61.191 149.16C57.8561 146.128 54.4936 146.349 50.4511 148.034ZM99.1542 105.043C102.166 109.41 105.92 110.261 110.241 109.892C110.251 106.039 110.262 102.185 110.516 98.4443C106.961 100.356 103.18 102.756 99.1542 105.043ZM67.5255 84.427C67.8827 84.296 68.1266 84.4092 68.4838 84.2782C69.0781 79.805 69.9162 75.4449 70.5104 70.9717C70.0227 70.7454 69.7789 70.6322 69.2912 70.4058C67.4262 72.5083 65.4478 74.8551 63.5828 76.9576C64.984 79.6856 66.2548 82.0563 67.5255 84.427Z" fill="#020202"/>
</g>
</svg>
